<svg width="48" height="48" viewBox="0 0 48 48" fill="none" xmlns="http://www.w3.org/2000/svg">
<circle cx="24" cy="24" r="23.5" fill="#E1E6E9" stroke="#C8D1D7"/>
<path d="M15 23C14.4477 23 14 23.4477 14 24C14 24.5523 14.4477 25 15 25L15 23ZM33.3071 24.7071C33.6976 24.3166 33.6976 23.6834 33.3071 23.2929L26.9431 16.9289C26.5526 16.5384 25.9195 16.5384 25.5289 16.9289C25.1384 17.3195 25.1384 17.9526 25.5289 18.3431L31.1858 24L25.5289 29.6569C25.1384 30.0474 25.1384 30.6805 25.5289 31.0711C25.9195 31.4616 26.5526 31.4616 26.9431 31.0711L33.3071 24.7071ZM15 25L32.6 25L32.6 23L15 23L15 25Z" fill="#205E81"/>
</svg>
