<svg width="32" height="32" viewBox="0 0 32 32" fill="none" xmlns="http://www.w3.org/2000/svg">
<circle cx="16" cy="16" r="16" fill="#E1E6E9"/>
<path d="M13 8.5V10.75M19 8.5V10.75M22.5625 20.2H9.4375M19 9.625C21.4975 9.76 22.75 10.7125 22.75 14.2375V18.8725C22.75 21.9625 22 23.5075 18.25 23.5075H13.75C10 23.5075 9.25 21.9625 9.25 18.8725V14.2375C9.25 10.7125 10.5025 9.7675 13 9.625H19Z" stroke="#292D32" stroke-width="1.5" stroke-miterlimit="10" stroke-linecap="round" stroke-linejoin="round"/>
<path d="M16 13.1875C15.0775 13.1875 14.2975 13.69 14.2975 14.665C14.2975 15.13 14.515 15.4825 14.845 15.7075C14.3875 15.9775 14.125 16.4125 14.125 16.9225C14.125 17.8525 14.8375 18.43 16 18.43C17.155 18.43 17.875 17.8525 17.875 16.9225C17.875 16.4125 17.6125 15.97 17.1475 15.7075C17.485 15.475 17.695 15.13 17.695 14.665C17.695 13.69 16.9225 13.1875 16 13.1875ZM16 15.3175C15.61 15.3175 15.325 15.085 15.325 14.7175C15.325 14.3425 15.61 14.125 16 14.125C16.39 14.125 16.675 14.3425 16.675 14.7175C16.675 15.085 16.39 15.3175 16 15.3175ZM16 17.5C15.505 17.5 15.145 17.2525 15.145 16.8025C15.145 16.3525 15.505 16.1125 16 16.1125C16.495 16.1125 16.855 16.36 16.855 16.8025C16.855 17.2525 16.495 17.5 16 17.5Z" fill="#292D32"/>
</svg>
