<svg width="32" height="32" viewBox="0 0 32 32" fill="none" xmlns="http://www.w3.org/2000/svg">
<circle cx="16" cy="16" r="16" fill="#E1E6E9"/>
<path d="M23.4775 20.7475C23.4775 21.0175 23.4175 21.295 23.29 21.565C23.1625 21.835 22.9975 22.09 22.78 22.33C22.4125 22.735 22.0075 23.0275 21.55 23.215C21.1 23.4025 20.6125 23.5 20.0875 23.5C19.3225 23.5 18.505 23.32 17.6425 22.9525C16.78 22.585 15.9175 22.09 15.0625 21.4675C14.2 20.8375 13.3825 20.14 12.6025 19.3675C11.83 18.5875 11.1325 17.77 10.51 16.915C9.895 16.06 9.4 15.205 9.04 14.3575C8.68 13.5025 8.5 12.685 8.5 11.905C8.5 11.395 8.59 10.9075 8.77 10.4575C8.95 10 9.235 9.58 9.6325 9.205C10.1125 8.7325 10.6375 8.5 11.1925 8.5C11.4025 8.5 11.6125 8.545 11.8 8.635C11.995 8.725 12.1675 8.86 12.3025 9.055L14.0425 11.5075C14.1775 11.695 14.275 11.8675 14.3425 12.0325C14.41 12.19 14.4475 12.3475 14.4475 12.49C14.4475 12.67 14.395 12.85 14.29 13.0225C14.1925 13.195 14.05 13.375 13.87 13.555L13.3 14.1475C13.2175 14.23 13.18 14.3275 13.18 14.4475C13.18 14.5075 13.1875 14.56 13.2025 14.62C13.225 14.68 13.2475 14.725 13.2625 14.77C13.3975 15.0175 13.63 15.34 13.96 15.73C14.2975 16.12 14.6575 16.5175 15.0475 16.915C15.4525 17.3125 15.8425 17.68 16.24 18.0175C16.63 18.3475 16.9525 18.5725 17.2075 18.7075C17.245 18.7225 17.29 18.745 17.3425 18.7675C17.4025 18.79 17.4625 18.7975 17.53 18.7975C17.6575 18.7975 17.755 18.7525 17.8375 18.67L18.4075 18.1075C18.595 17.92 18.775 17.7775 18.9475 17.6875C19.12 17.5825 19.2925 17.53 19.48 17.53C19.6225 17.53 19.7725 17.56 19.9375 17.6275C20.1025 17.695 20.275 17.7925 20.4625 17.92L22.945 19.6825C23.14 19.8175 23.275 19.975 23.3575 20.1625C23.4325 20.35 23.4775 20.5375 23.4775 20.7475Z" stroke="#292D32" stroke-width="1.5" stroke-miterlimit="10"/>
</svg>
