<svg width="24" height="24" viewBox="0 0 24 24" fill="none" xmlns="http://www.w3.org/2000/svg">
<path d="M11.9864 12.341C9.16139 12.341 6.81339 9.995 6.81339 7.219C6.81339 4.347 9.16139 2 11.9874 2C14.9094 2 17.1604 4.346 17.1604 7.219C17.1554 8.58205 16.6093 9.88733 15.6423 10.848C14.6753 11.8086 13.3664 12.346 12.0034 12.342L11.9864 12.341ZM11.9864 5.017C10.7904 5.017 9.88039 6.022 9.88039 7.22C9.88039 8.416 10.7904 9.326 11.9874 9.326C13.2324 9.326 14.0944 8.416 14.0944 7.22C14.0954 6.021 13.2324 5.017 11.9864 5.017ZM14.0464 16.603L16.9694 19.428C17.5444 20.049 17.5444 20.959 16.9694 21.534C16.3474 22.155 15.3884 22.155 14.9094 21.534L11.9874 18.661L9.16139 21.534C8.87439 21.821 8.49039 21.964 8.05839 21.964C7.72339 21.964 7.34039 21.82 7.00439 21.534C6.42939 20.959 6.42939 20.049 7.00439 19.427L9.97439 16.602C8.90182 16.2844 7.87293 15.8346 6.91139 15.263C6.19239 14.88 6.04939 13.923 6.43239 13.204C6.91139 12.486 7.77339 12.295 8.54039 12.774C9.57899 13.4078 10.7722 13.7431 11.9889 13.7431C13.2056 13.7431 14.3988 13.4078 15.4374 12.774C16.2044 12.295 17.1134 12.486 17.5444 13.204C17.9764 13.923 17.7834 14.879 17.1124 15.263C16.2034 15.838 15.1494 16.269 14.0474 16.604L14.0464 16.603Z" fill="#FEFEFE"/>
</svg>
