<svg width="100" height="100" viewBox="0 0 100 100" fill="none" xmlns="http://www.w3.org/2000/svg">
<path fill-rule="evenodd" clip-rule="evenodd" d="M41.3764 4.61518L37.0099 9.19173L37.6486 9.87125C37.9999 10.245 38.3243 10.627 38.3695 10.7202C38.4147 10.8135 38.4517 11.0333 38.4517 11.209C38.4517 11.3845 38.4029 11.6271 38.3433 11.7479C38.2837 11.8687 38.1328 12.0575 38.008 12.1676C37.8832 12.2777 37.6654 12.3904 37.5242 12.4183C37.3829 12.4461 37.1432 12.4444 36.9916 12.4146C36.7769 12.3724 36.5636 12.2039 36.0268 11.6522L35.3378 10.944L33.3666 13.0098L31.3954 15.0756L31.8699 15.0798C32.1309 15.0821 32.5023 15.1341 32.6953 15.1952C32.8883 15.2563 33.1893 15.3942 33.3641 15.5016C33.5389 15.6089 33.8346 15.8678 34.0211 16.0767C34.2075 16.2856 34.3979 16.5305 34.444 16.621C34.5224 16.7743 34.4829 16.8105 33.8653 17.1518C33.5007 17.3532 32.9261 17.7358 32.5884 18.0021C32.2506 18.2684 31.7307 18.7381 31.4331 19.0458C31.1354 19.3536 30.8835 19.593 30.8732 19.5778C30.8629 19.5625 30.5275 19.0788 30.1278 18.5028C29.7281 17.9267 29.3714 17.4215 29.3351 17.38C29.2942 17.3334 28.4379 18.1753 27.0868 19.5906C25.8866 20.8479 24.9046 21.903 24.9046 21.9352C24.9046 21.9675 25.0107 21.9939 25.1403 21.9939C25.27 21.9939 25.5184 22.0661 25.6923 22.1543C25.8662 22.2425 26.1141 22.4408 26.2431 22.5948C26.3721 22.7487 26.5271 22.9986 26.5874 23.1499C26.6477 23.3012 26.6987 23.618 26.7006 23.8538C26.703 24.1504 26.6524 24.3901 26.5365 24.6316C26.4443 24.8236 26.2809 25.08 26.1734 25.2012C26.066 25.3224 25.8606 25.4849 25.7172 25.5623C25.5738 25.6397 25.3049 25.7268 25.1197 25.7558C24.9258 25.7863 24.6477 25.7706 24.4638 25.7187C24.2881 25.6691 24.0161 25.5395 23.8591 25.4307C23.7022 25.3219 23.475 25.0765 23.3543 24.8855C23.2335 24.6945 23.1122 24.3807 23.0846 24.188L23.0345 23.8378L18.1997 28.9042C15.5406 31.6907 13.3846 34.0041 13.4087 34.0449C13.4355 34.0904 13.8437 34.1002 14.4593 34.07C15.0215 34.0424 15.7586 33.9518 16.1286 33.8646C16.4929 33.7787 16.7969 33.7085 16.8039 33.7085C16.8109 33.7085 16.8321 33.876 16.8508 34.0807C16.8696 34.2853 16.97 34.6474 17.0739 34.8852C17.1778 35.123 17.3826 35.4565 17.529 35.6264C17.6754 35.7962 18.004 36.0519 18.2593 36.1944C18.6473 36.4112 18.8209 36.4591 19.3191 36.4865C19.8185 36.5139 19.9775 36.491 20.3031 36.3442C20.5281 36.2428 20.7972 36.0397 20.9426 35.8616C21.0807 35.6925 21.2518 35.4269 21.3227 35.2714C21.3936 35.1158 21.4665 34.8054 21.4847 34.5813C21.5028 34.3573 21.4956 34.174 21.4685 34.174C21.4414 34.174 21.324 34.2478 21.2077 34.338C21.0623 34.4507 20.8799 34.5039 20.6253 34.5079C20.3336 34.5125 20.2002 34.4702 19.9991 34.3095C19.8585 34.1971 19.6888 33.9845 19.6221 33.8369C19.5552 33.6895 19.5006 33.4095 19.5006 33.2148C19.5006 33.0202 19.569 32.6693 19.6526 32.4351C19.7362 32.2009 19.9511 31.8386 20.1301 31.63C20.3437 31.381 20.6157 31.1741 20.9219 31.0278C21.3117 30.8416 21.4855 30.8051 21.9805 30.8054C22.4356 30.8057 22.6585 30.8463 22.9429 30.9807C23.1465 31.0769 23.474 31.3198 23.6706 31.5205C23.8673 31.7212 24.0882 32.0076 24.1614 32.1569C24.2346 32.3063 24.4314 32.9347 24.5987 33.5534C24.766 34.1721 25.0214 35.2194 25.1663 35.8808C25.3112 36.5422 25.5258 37.6768 25.6433 38.4022C25.7607 39.1275 25.908 40.1923 25.9705 40.7684C26.0329 41.3444 26.123 42.4615 26.1708 43.2509C26.2242 44.1353 26.24 45.4603 26.2119 46.7033C26.1868 47.8127 26.1148 49.2615 26.052 49.9228C25.9893 50.5842 25.8696 51.6141 25.7862 52.2115C25.7029 52.8088 25.518 53.9044 25.3754 54.646C25.2329 55.3877 25.0349 56.2887 24.9355 56.6482C24.8361 57.0077 24.6679 57.4832 24.5617 57.7047C24.4556 57.9263 24.2237 58.322 24.0464 58.5841C23.8691 58.8461 23.5188 59.2553 23.2679 59.4932C23.0169 59.7313 22.5171 60.0853 22.1572 60.2801C21.7973 60.4749 21.2439 60.7085 20.9274 60.799C20.4654 60.9312 20.1329 60.9646 19.2415 60.9684C18.3405 60.9723 18.0124 60.9418 17.5018 60.8069C17.1558 60.7154 16.6043 60.522 16.2764 60.3769C15.9485 60.2318 15.4448 59.9534 15.1569 59.7583C14.8691 59.5632 14.3913 59.1644 14.0951 58.872C13.7989 58.5796 13.3919 58.1134 13.1907 57.836C12.9895 57.5587 12.6775 57.0151 12.4974 56.628C12.3174 56.2409 12.0829 55.5776 11.9764 55.154C11.8119 54.4992 11.7828 54.2209 11.7828 53.2976C11.7828 52.3749 11.812 52.0948 11.9768 51.4357C12.0835 51.009 12.2784 50.4329 12.4099 50.1556C12.5621 49.8346 12.838 49.4518 13.1692 49.102C13.5062 48.7463 13.8416 48.478 14.1215 48.3402C14.3591 48.2233 14.7756 48.0783 15.0469 48.018C15.3182 47.9577 15.6757 47.9078 15.8413 47.9071C16.0069 47.9064 16.3202 47.9611 16.5374 48.0286C16.7546 48.0963 17.0556 48.2331 17.2063 48.3328C17.3569 48.4324 17.6015 48.6625 17.7498 48.8441C17.898 49.0255 18.0908 49.3289 18.1782 49.518C18.2706 49.7181 18.3518 50.0775 18.3723 50.3775C18.3971 50.741 18.3733 50.9788 18.2916 51.1837C18.2278 51.3436 18.088 51.5949 17.9808 51.7422C17.8736 51.8894 17.6155 52.0989 17.4072 52.2077C17.1248 52.3551 16.9147 52.405 16.5805 52.4037C16.3076 52.4027 16.0159 52.3465 15.8346 52.2603C15.6708 52.1823 15.4243 52.0005 15.2867 51.8564C15.1492 51.7122 14.9757 51.4538 14.9013 51.2822C14.8269 51.1106 14.7639 50.7956 14.7613 50.5823L14.7567 50.1944L14.5037 50.4946C14.3645 50.6597 14.1917 50.9739 14.1197 51.1928C14.0417 51.4298 13.9895 51.8106 13.9907 52.1339C13.9923 52.5543 14.0372 52.778 14.1893 53.1246C14.2991 53.3746 14.5453 53.735 14.7471 53.941C14.9458 54.1438 15.2555 54.3769 15.4353 54.459C15.6151 54.541 15.771 54.6134 15.7817 54.6199C15.7925 54.6263 15.7116 54.8371 15.6018 55.0882C15.4589 55.4155 15.4011 55.6771 15.3978 56.0116C15.3953 56.2684 15.4405 56.6006 15.4984 56.7499C15.5562 56.8993 15.7033 57.1701 15.8254 57.3518C15.9474 57.5336 16.1997 57.7839 16.386 57.9083C16.5722 58.0326 16.8578 58.1576 17.0207 58.1859C17.1835 58.2143 17.3834 58.2552 17.4648 58.2769C17.5637 58.3033 17.5201 58.2343 17.3337 58.0693C17.1802 57.9333 17.0053 57.7222 16.9451 57.6002C16.8849 57.4781 16.8357 57.2456 16.8357 57.0835C16.8357 56.9214 16.8941 56.669 16.9653 56.5227C17.0364 56.3764 17.1854 56.187 17.2962 56.1019C17.4499 55.9837 17.6714 55.9344 18.2295 55.8938C18.8342 55.8499 19.0284 55.8024 19.3474 55.6204C19.5598 55.4993 19.8311 55.2711 19.9505 55.1132C20.0697 54.9554 20.2331 54.6743 20.3135 54.4886C20.4096 54.2666 20.4603 53.9801 20.4613 53.6516L20.463 53.1522L20.6665 53.3521C20.7785 53.4621 21.0068 53.6238 21.174 53.7116C21.3411 53.7993 21.6447 53.8943 21.8486 53.9227C22.1 53.9576 22.3498 53.9345 22.6246 53.8507C22.8819 53.7724 23.157 53.6099 23.3785 53.4057C23.5703 53.2287 23.8089 52.915 23.9087 52.7085C24.0466 52.4233 24.0903 52.2105 24.0903 51.8236C24.0903 51.5435 24.0429 51.1952 23.9848 51.0497L23.8793 50.7851L23.5579 51.1219C23.3462 51.3437 23.1234 51.4907 22.9053 51.5522C22.7227 51.6037 22.4256 51.6243 22.2429 51.598C22.0605 51.5718 21.7872 51.4643 21.6354 51.359C21.4836 51.2537 21.2752 51.0169 21.1722 50.8327C21.0614 50.6346 20.9548 50.2774 20.9113 49.9582C20.8707 49.6614 20.7833 49.2266 20.717 48.9919C20.6508 48.7572 20.4655 48.2999 20.3052 47.9755C20.1449 47.6512 19.8233 47.1533 19.5906 46.869C19.3579 46.5848 18.9842 46.2077 18.7603 46.0311C18.5364 45.8544 18.0867 45.5799 17.7609 45.4209C17.4352 45.262 16.9242 45.0707 16.6254 44.9959C16.1962 44.8886 15.8854 44.8686 15.1449 44.9009C14.4086 44.9329 14.0956 44.983 13.685 45.134C13.3977 45.2397 13.0571 45.3834 12.9283 45.4532L12.694 45.5802L12.5322 45.2496C12.4284 45.0371 12.3583 44.7224 12.3363 44.3694C12.3088 43.9287 12.3322 43.7485 12.4543 43.4592C12.5381 43.2607 12.6958 42.9758 12.8048 42.826C12.9203 42.6674 13.1988 42.4527 13.4724 42.3115C13.8884 42.0969 13.9992 42.0727 14.4449 42.0993C14.7729 42.1187 15.0638 42.1902 15.281 42.3047L15.6141 42.4803L15.8928 42.1562C16.065 41.9559 16.2166 41.6692 16.2897 41.4056C16.3599 41.1526 16.3951 40.8149 16.376 40.5753C16.3585 40.3531 16.2685 40.0177 16.1761 39.8298C16.0836 39.642 15.9194 39.3891 15.8111 39.268C15.7027 39.1468 15.4713 38.9594 15.2966 38.8515C15.0801 38.7178 14.8268 38.6425 14.5008 38.6151C14.2377 38.593 14.0225 38.5665 14.0225 38.5561C14.0225 38.5459 14.0725 38.4122 14.1336 38.2589C14.1947 38.1058 14.2446 37.777 14.2446 37.5284C14.2446 37.1563 14.2021 37.0022 14.004 36.6565C13.8175 36.331 13.672 36.1863 13.3563 36.0124C12.9989 35.8156 12.8926 35.7928 12.4861 35.8256C12.1944 35.8491 11.8732 35.9398 11.6181 36.0705C11.3955 36.1847 11.0959 36.4219 10.9523 36.5977C10.8088 36.7734 10.6913 36.9459 10.6913 36.9809C10.6913 37.0159 10.7424 37.0445 10.8048 37.0445C10.8673 37.0445 11.0754 37.1285 11.2675 37.2312C11.4595 37.3339 11.7049 37.5172 11.8127 37.6385C11.9205 37.7599 12.0786 37.9813 12.164 38.1306C12.2494 38.28 12.3195 38.43 12.3196 38.4641C12.3198 38.4981 12.1784 38.4251 12.0053 38.3018C11.8323 38.1785 11.5774 38.0372 11.4391 37.9878C11.3006 37.9383 10.9842 37.8982 10.7358 37.8987C10.4192 37.8992 10.1733 37.9535 9.91349 38.0803C9.70962 38.1798 9.43039 38.3953 9.29299 38.5593C9.1556 38.7233 8.9817 38.9994 8.90649 39.1729C8.81758 39.378 8.77043 39.6645 8.77154 39.9926C8.7725 40.2699 8.81336 40.5951 8.86244 40.7152C8.94484 40.9169 8.98614 40.9352 9.40284 40.9529C9.73952 40.9674 9.94288 41.0269 10.2043 41.1874C10.4134 41.3158 10.6407 41.5448 10.768 41.755C10.8853 41.9488 11.0033 42.2612 11.0301 42.4494C11.0588 42.6497 11.041 42.9339 10.9872 43.1353C10.9367 43.3244 10.8196 43.5868 10.727 43.7184C10.6344 43.8499 10.297 44.1587 9.97723 44.4046C9.65743 44.6506 9.20215 45.0589 8.96541 45.312C8.72875 45.5652 8.38289 46.0109 8.19686 46.3024C8.0109 46.5939 7.75855 47.0824 7.63603 47.3878C7.51359 47.6933 7.34998 48.1705 7.27255 48.4482C7.19504 48.7259 7.11147 49.2586 7.08682 49.6319C7.06217 50.0053 7.02871 50.3107 7.01242 50.3107C6.99613 50.3107 6.80936 50.1945 6.59727 50.0523C6.38525 49.9102 6.06176 49.619 5.87831 49.4052C5.69495 49.1914 5.45391 48.8217 5.34265 48.5836C5.23139 48.3456 5.09014 47.9487 5.02877 47.7016C4.9674 47.4546 4.91766 47.0766 4.91832 46.8615C4.91891 46.6465 4.9677 46.261 5.0267 46.005C5.0857 45.749 5.13515 45.5085 5.13656 45.4706C5.13804 45.4326 4.93935 45.4206 4.69506 45.4438C4.40435 45.4714 4.13466 45.5574 3.91458 45.6925C3.72966 45.8061 3.47974 46.0417 3.35923 46.2161C3.23864 46.3905 3.10339 46.6759 3.05853 46.8504C3.01374 47.0248 2.99279 47.3424 3.01211 47.556C3.03136 47.7697 3.07489 48.0144 3.10879 48.0997C3.15239 48.2095 3.07563 48.1699 2.84644 47.9643C2.66825 47.8045 2.36999 47.5954 2.18374 47.4997C1.9111 47.3596 1.72218 47.3263 1.21575 47.329C0.786986 47.3313 0.493097 47.3752 0.293296 47.4668L0 47.6012L9.50974 57.5679C18.1471 66.6204 19.0253 67.5186 19.0833 67.3596C19.1184 67.2633 19.1974 67.0558 19.259 66.8985C19.3204 66.7413 19.4731 66.5028 19.5983 66.3687C19.7235 66.2344 19.9609 66.0523 20.1259 65.9637C20.315 65.8622 20.5766 65.8004 20.8331 65.7966C21.0615 65.7932 21.394 65.8521 21.5905 65.9309C21.8115 66.0195 22.0511 66.2026 22.2397 66.4272C22.4277 66.6511 22.5826 66.9416 22.6571 67.2104C22.7558 67.5662 22.7611 67.7061 22.6887 68.0455C22.6408 68.2697 22.5064 68.5907 22.3902 68.759C22.2739 68.9272 22.0696 69.1463 21.9361 69.2459C21.8026 69.3455 21.556 69.4635 21.3881 69.5083C21.2201 69.5529 21.0682 69.6099 21.0504 69.6349C21.0327 69.6598 21.8948 70.5824 22.9663 71.6849L24.9145 73.6896L26.5011 72.0281C27.6045 70.8727 28.0878 70.4137 28.0879 70.5211C28.0879 70.6061 28.1223 71.0596 28.1644 71.529C28.2064 71.9984 28.307 72.6791 28.388 73.0418C28.4689 73.4045 28.6212 73.9805 28.7263 74.3219C28.8314 74.6632 29.129 75.3964 29.3875 75.9511C29.6461 76.5058 30.0677 77.2632 30.3245 77.6343C30.5812 78.0053 31.0279 78.5821 31.3171 78.9162C31.6063 79.2502 32.1929 79.8144 32.6207 80.17L33.3984 80.8165L33.443 81.2641C33.4675 81.5103 33.5676 81.9426 33.6654 82.2249C33.7631 82.5071 33.9526 82.9273 34.0863 83.1586C34.2439 83.431 35.4829 84.7876 37.6038 87.0099L40.8781 90.4406L40.9603 90.0385C41.0056 89.8173 41.0426 89.4143 41.0426 89.1429C41.0426 88.8714 40.9795 88.4368 40.9024 88.177C40.8252 87.9173 40.6549 87.5296 40.5238 87.3155C40.3927 87.1015 40.1408 86.7929 39.964 86.6297C39.7871 86.4666 39.4912 86.249 39.3062 86.1461C39.1212 86.0434 38.9699 85.9353 38.9699 85.9061C38.9699 85.8769 39.03 85.833 39.1034 85.8086C39.1768 85.7842 39.3769 85.6233 39.5479 85.4511C39.7189 85.2789 39.9476 84.9561 40.0562 84.7339C40.2072 84.4248 40.2611 84.1838 40.2852 83.7091C40.3107 83.2066 40.2864 83.0042 40.1575 82.6461C40.0679 82.3972 39.8499 82.0309 39.659 81.8083C39.4724 81.5908 39.1993 81.3483 39.0523 81.2696L38.7848 81.1264L38.8094 81.6164C38.8274 81.9755 38.7959 82.1961 38.6915 82.4423C38.6132 82.627 38.4571 82.8923 38.3446 83.0318C38.232 83.1713 37.9936 83.3754 37.8147 83.4852C37.6098 83.6111 37.3317 83.6999 37.0637 83.7251C36.8296 83.7471 36.4978 83.7254 36.3265 83.6768C36.1552 83.6283 35.8727 83.4748 35.6988 83.3358C35.525 83.1969 35.2877 82.922 35.1715 82.7251C35.0554 82.5282 34.942 82.2239 34.9196 82.049C34.8972 81.8739 34.9009 81.7308 34.928 81.7308C34.9551 81.7308 35.101 81.7867 35.2523 81.8549C35.4037 81.9232 35.7583 82.0629 36.0402 82.1653C36.3222 82.2677 36.692 82.3515 36.8621 82.3515C37.0611 82.3515 37.2603 82.2886 37.4211 82.175C37.5585 82.0781 37.7466 81.8809 37.8392 81.7369C37.9574 81.5531 38.0075 81.3619 38.0075 81.0948C38.0075 80.8857 37.9575 80.6133 37.8965 80.4895C37.8353 80.3656 37.4606 79.9876 37.0637 79.6493C36.6666 79.3111 36.2614 78.9432 36.1632 78.8318C35.9865 78.6316 35.986 78.6274 36.1262 78.4648C36.2041 78.3745 36.4344 78.2101 36.638 78.0997C36.9381 77.937 37.1132 77.8987 37.5633 77.8971C38.041 77.8955 38.1743 77.9272 38.5177 78.1246C38.7542 78.2605 39.1161 78.5861 39.406 78.9238C39.6751 79.2373 40.0396 79.7091 40.2161 79.9722C40.3925 80.2354 40.6465 80.6777 40.7805 80.955C40.9144 81.2324 41.1108 81.7123 41.2168 82.0215C41.3228 82.3307 41.467 82.8195 41.5373 83.1076C41.642 83.5367 41.6674 84.0315 41.6771 85.8426C41.6861 87.5216 41.7182 88.2172 41.8105 88.7331C41.8773 89.1069 42.0359 89.7527 42.1628 90.1684C42.2899 90.584 42.5185 91.2034 42.6708 91.5447C42.8232 91.8861 43.1289 92.4538 43.3501 92.8063L43.7522 93.4474L43.9705 93.2083C44.0906 93.0769 44.3361 92.8669 44.5161 92.7419C44.7363 92.5889 44.9369 92.5145 45.1293 92.5145C45.2864 92.5145 45.5261 92.5631 45.662 92.6226C45.7978 92.6821 46.0007 92.8569 46.1129 93.011C46.235 93.1788 46.3313 93.4257 46.3529 93.6262C46.3791 93.8697 46.3467 94.0479 46.2344 94.2787C46.1495 94.4532 45.9875 94.6639 45.8747 94.7467C45.7618 94.8296 45.5777 94.9286 45.4655 94.9667C45.266 95.0346 45.3126 95.0895 47.6307 97.518L49.9999 100L51.8492 98.063L53.6986 96.1261L53.3731 96.0266C53.1817 95.9681 52.9695 95.83 52.8583 95.6913C52.7541 95.5617 52.6295 95.3176 52.5813 95.1489C52.4999 94.8643 52.5144 94.7883 52.7828 94.0916C53.0613 93.369 53.0721 93.3073 53.0721 92.4428C53.0721 91.6215 53.0544 91.5049 52.8647 91.0793C52.7507 90.8232 52.5853 90.5032 52.4974 90.3681L52.3374 90.1224L52.1326 90.2752C52.02 90.3593 51.7189 90.5267 51.4636 90.6473C51.2083 90.7678 50.8228 90.9056 50.6071 90.9535C50.3913 91.0013 49.9749 91.0399 49.6818 91.0393C49.3885 91.0387 48.9356 90.9855 48.6751 90.9212C48.4147 90.8568 47.965 90.6755 47.6758 90.5183C47.3542 90.3434 46.9729 90.0453 46.6941 89.7508C46.4434 89.4861 46.1462 89.1048 46.0337 88.9035C45.9211 88.7023 45.7493 88.3075 45.6519 88.0262C45.5483 87.7272 45.457 87.2502 45.4319 86.878C45.4063 86.4975 45.4256 86.0438 45.48 85.751C45.5301 85.4814 45.7004 84.9702 45.8585 84.615C46.0796 84.1187 46.2648 83.8449 46.6598 83.4309C46.9424 83.1348 47.2921 82.8405 47.437 82.7771C47.5819 82.7137 47.8597 82.6623 48.0544 82.663C48.2829 82.6639 48.5123 82.726 48.7014 82.8383C48.8626 82.9339 49.0952 83.1625 49.2184 83.3461C49.4041 83.623 49.4423 83.7554 49.4423 84.1216C49.4423 84.4485 49.3976 84.6391 49.27 84.8554C49.1752 85.0162 48.9809 85.2409 48.8383 85.355C48.6468 85.508 48.4689 85.5706 48.1582 85.5942C47.858 85.6169 47.6532 85.5859 47.4437 85.4862C47.2821 85.4094 47.1199 85.3312 47.0833 85.3127C47.0461 85.2937 47.0353 85.4233 47.0588 85.6074C47.0819 85.788 47.196 86.0972 47.3124 86.2944C47.438 86.5074 47.6692 86.7471 47.8815 86.8847C48.1548 87.0618 48.3505 87.1238 48.7124 87.1479C49.1128 87.1746 49.2482 87.1476 49.5894 86.9726C49.8214 86.8537 50.1389 86.5957 50.3361 86.3659C50.5248 86.1459 50.7598 85.7991 50.8583 85.5953C50.9569 85.3914 51.0873 85.0246 51.148 84.7803C51.2088 84.5359 51.2585 84.1586 51.2585 83.9419C51.2585 83.7251 51.2074 83.3423 51.145 83.0912C51.0826 82.8401 50.9441 82.4662 50.8372 82.2604C50.7303 82.0546 50.4495 81.6929 50.2131 81.4566C49.9593 81.2029 49.5779 80.9263 49.281 80.7806C48.855 80.5715 48.672 80.5292 48.0782 80.5018L47.3779 80.4696L47.789 80.2517C48.0151 80.1319 48.3494 79.8818 48.5319 79.696C48.7144 79.5101 48.9529 79.1668 49.062 78.9331C49.1711 78.6994 49.3004 78.3085 49.3492 78.0644C49.4152 77.7344 49.4176 77.4957 49.3584 77.1349C49.3145 76.8678 49.2075 76.4911 49.1206 76.2978C49.0337 76.1045 48.8569 75.812 48.7278 75.6477C48.5986 75.4836 48.3573 75.2847 48.1916 75.2058C48.0212 75.1247 47.7181 75.0615 47.4942 75.0606C47.2764 75.0597 46.989 75.1132 46.8555 75.1796C46.722 75.246 46.5413 75.3799 46.4541 75.4772L46.2956 75.654L46.5968 75.7486C46.7988 75.8121 46.9467 75.9247 47.0463 76.091C47.1512 76.2663 47.1846 76.4252 47.1604 76.6329C47.1416 76.7946 47.084 76.9803 47.0324 77.0454C46.9807 77.1107 46.6363 77.3798 46.2669 77.6436C45.8975 77.9075 45.3157 78.4026 44.9741 78.744C44.6324 79.0853 44.1218 79.677 43.8396 80.0587C43.5572 80.4404 43.2744 80.8578 43.2111 80.9861L43.096 81.2196L42.8953 80.6024C42.7849 80.263 42.6023 79.7932 42.4896 79.5586C42.3768 79.3239 42.1017 78.8417 41.878 78.487C41.6543 78.1324 41.1937 77.5512 40.8544 77.1957C40.5151 76.8401 39.9606 76.3587 39.6222 76.1259C39.2837 75.893 38.857 75.6413 38.6738 75.5664C38.4593 75.4786 38.1429 75.4307 37.7854 75.4319C37.3944 75.4331 37.0988 75.4853 36.7861 75.608C36.4582 75.7367 36.224 75.906 35.8919 76.2546C35.5884 76.573 35.3975 76.8533 35.3059 77.1148C35.2312 77.3281 35.1469 77.5308 35.1188 77.5653C35.0906 77.5997 34.8502 77.3204 34.5845 76.9446C34.3189 76.5688 33.9854 76.0694 33.8435 75.8347C33.7015 75.6 33.4174 75.0568 33.2119 74.6275C33.0064 74.1983 32.7036 73.4302 32.5389 72.9208C32.3742 72.4113 32.1537 71.5581 32.0489 71.0247C31.912 70.328 31.8457 69.6946 31.8135 68.7749C31.785 67.9631 31.8013 67.1968 31.8581 66.6802C31.9073 66.2322 32.0136 65.5514 32.0942 65.1674C32.1749 64.7834 32.3528 64.1201 32.4896 63.6934C32.6264 63.2667 32.8382 62.6746 32.96 62.3775L33.1817 61.8375L32.8992 61.2487C32.7438 60.9248 32.4682 60.295 32.2866 59.8492C32.1051 59.4033 31.8214 58.6022 31.6562 58.0688C31.4911 57.5354 31.2676 56.7325 31.1594 56.2844C31.0514 55.8364 30.8679 54.8764 30.7518 54.151C30.6357 53.4256 30.4802 52.2561 30.4062 51.552C30.2974 50.5171 30.2716 49.6405 30.2716 46.9748C30.2716 44.309 30.2974 43.4325 30.4062 42.3975C30.4802 41.6935 30.6369 40.5168 30.7544 39.7825C30.8719 39.0483 31.0856 37.8963 31.2294 37.2224C31.3731 36.5485 31.6088 35.5608 31.753 35.0274C31.8972 34.494 32.1863 33.5121 32.3956 32.8454L32.7761 31.6331L32.4391 30.9447C32.2537 30.566 32.0185 29.9925 31.9164 29.6702C31.8142 29.3481 31.6891 28.8145 31.6383 28.4847C31.5794 28.102 31.5613 27.528 31.5881 26.8984C31.6153 26.263 31.6864 25.6935 31.7877 25.2987C31.8743 24.9616 32.0242 24.4819 32.1208 24.2329C32.2174 23.9838 32.4571 23.4945 32.6535 23.1458C32.8499 22.7971 33.268 22.2255 33.5827 21.8757C33.8973 21.5259 34.3303 21.0978 34.545 20.9245C34.7597 20.7511 35.2185 20.45 35.5646 20.2555C35.9107 20.061 36.2359 19.9012 36.2873 19.9005C36.3387 19.8998 36.4668 20.0999 36.5719 20.3453C36.677 20.5906 36.9401 21.2452 37.1565 21.7999C37.3729 22.3546 37.6695 23.1841 37.8156 23.6431C37.9617 24.1021 38.1801 24.8527 38.3012 25.3111C38.4221 25.7694 38.6368 26.7554 38.7781 27.5021C38.9194 28.2488 39.0879 29.2961 39.1525 29.8295C39.2171 30.3629 39.3088 31.5234 39.3561 32.4084C39.4214 33.6265 39.4217 34.3996 39.3573 35.5892C39.3105 36.4536 39.2188 37.5973 39.1535 38.1306C39.0882 38.664 38.9363 39.624 38.816 40.2641C38.6957 40.9041 38.4624 41.9515 38.2977 42.5915C38.133 43.2315 37.882 44.0035 37.7399 44.3071C37.5978 44.6107 37.3243 45.0637 37.1321 45.3137C36.9399 45.5638 36.5593 45.9491 36.2864 46.17L35.7902 46.5715L35.9712 46.6957C36.0706 46.764 36.328 46.8931 36.5431 46.9826C36.7581 47.0721 37.184 47.1636 37.4893 47.186C37.8709 47.214 38.1891 47.1879 38.5071 47.1024C38.7615 47.034 39.1088 46.9036 39.2789 46.8127C39.4491 46.7217 39.7688 46.4684 39.9895 46.2497C40.2101 46.031 40.4746 45.7019 40.5772 45.5185C40.6798 45.335 40.8265 44.9735 40.9032 44.7153C40.9799 44.457 41.0432 44.1353 41.044 44.0004C41.0451 43.7964 41.1239 43.9116 41.5126 44.6862C41.7697 45.1982 42.1401 45.879 42.3358 46.199C42.5314 46.519 42.9276 47.1125 43.2162 47.5179C43.5047 47.9232 44.0748 48.6171 44.483 49.0598C44.8912 49.5026 45.563 50.1568 45.9759 50.5137L46.7265 51.1625L46.4674 51.6739C46.3249 51.9551 46.083 52.4879 45.93 52.8578C45.777 53.2277 45.5475 53.8591 45.4201 54.2611C45.2927 54.6629 45.108 55.3961 45.0096 55.8902C44.9113 56.3844 44.7925 57.1727 44.7457 57.6421C44.6989 58.1115 44.5932 58.862 44.511 59.3101C44.4288 59.7581 44.2187 60.5791 44.0443 61.1345C43.87 61.6899 43.5571 62.5223 43.3492 62.9843C43.0385 63.6746 42.8866 63.9111 42.4963 64.3121C42.2018 64.6148 41.8292 64.8993 41.5151 65.0613C41.0843 65.2835 40.9303 65.3226 40.4832 65.3226C40.0214 65.3226 39.9247 65.2962 39.6852 65.1047C39.5353 64.9849 39.3464 64.7506 39.2653 64.5842C39.1843 64.4177 39.1179 64.1514 39.1179 63.9925C39.1179 63.8336 39.1886 63.5506 39.2749 63.3637C39.3673 63.1636 39.5509 62.9412 39.721 62.8233C39.892 62.7047 40.1527 62.6089 40.3597 62.5885C40.6468 62.5603 40.7872 62.5972 41.1427 62.7941C41.381 62.926 41.6495 63.0339 41.7395 63.0339C41.8294 63.0339 41.9801 62.9588 42.0742 62.8668C42.2282 62.7165 42.2418 62.6484 42.2101 62.188C42.1868 61.8491 42.1101 61.5424 41.983 61.2801C41.8775 61.0621 41.7059 60.7777 41.6018 60.6479C41.4976 60.5182 41.2376 60.2972 41.0239 60.1567C40.8103 60.0162 40.6231 59.892 40.6079 59.8806C40.5927 59.8692 40.7165 59.6977 40.883 59.4994C41.0495 59.3011 41.2535 58.9492 41.3363 58.7174C41.438 58.4324 41.4868 58.1089 41.4868 57.7197C41.4868 57.3276 41.438 57.0069 41.3339 56.7156C41.2499 56.48 41.1547 56.2703 41.1224 56.2494C41.0902 56.2285 40.7747 56.4708 40.4216 56.7879C40.0684 57.105 39.7491 57.3841 39.712 57.4081C39.6749 57.4322 39.7336 57.2851 39.8424 57.0815C39.9917 56.8021 40.0396 56.6062 40.0377 56.2844C40.0361 56.0051 39.9815 55.7506 39.8794 55.5474C39.7938 55.3767 39.629 55.1429 39.5134 55.0279C39.3977 54.9128 39.1791 54.7644 39.0278 54.6982C38.8764 54.6319 38.6265 54.5779 38.4726 54.5781C38.3186 54.5784 38.0667 54.6151 37.913 54.6599C37.7592 54.7047 37.5157 54.8495 37.3719 54.9819C37.2281 55.1141 37.0458 55.3553 36.9668 55.5176C36.8877 55.6799 36.8231 55.8691 36.8231 55.9379C36.8231 56.0439 36.8528 56.0384 37.0181 55.9022C37.1254 55.8138 37.3179 55.7414 37.4458 55.7414C37.5738 55.7414 37.7527 55.7958 37.8434 55.8625C37.9341 55.929 38.0599 56.0881 38.123 56.2159C38.227 56.4266 38.2262 56.5073 38.1141 57.084C38.0462 57.4336 37.8975 58.0186 37.7837 58.3839C37.6699 58.7492 37.3769 59.5173 37.1325 60.0907C36.8881 60.6641 36.6548 61.2729 36.6142 61.4435C36.5734 61.6142 36.5189 61.9481 36.4929 62.1856C36.467 62.423 36.48 62.8419 36.5219 63.1166C36.5637 63.3911 36.6476 63.791 36.7083 64.0052C36.769 64.2194 36.9446 64.6129 37.0984 64.8796C37.2524 65.1463 37.5696 65.5693 37.8033 65.8195C38.0786 66.1141 38.4306 66.3828 38.8027 66.5825C39.1186 66.7519 39.5436 66.9392 39.7472 66.9987C39.9572 67.0601 40.4535 67.1065 40.8946 67.1061C41.4947 67.1054 41.7947 67.065 42.2109 66.9286L42.75 66.7518L42.9415 66.9903C43.0469 67.1215 43.2328 67.2829 43.3545 67.3489C43.4764 67.4149 43.7489 67.4705 43.9601 67.4725C44.1801 67.4746 44.4459 67.421 44.5826 67.3469C44.7137 67.2759 44.9234 67.0706 45.0487 66.8908C45.1738 66.7109 45.389 66.3306 45.5267 66.0457C45.6643 65.7607 45.8471 65.272 45.9328 64.9596C46.0186 64.6471 46.1113 64.025 46.1391 63.577L46.1895 62.7624L46.3597 63.2814C46.4533 63.5669 46.6603 64.0121 46.8198 64.2706C46.9793 64.5293 47.2904 64.9703 47.511 65.2507C47.7317 65.5311 48.0126 65.9587 48.1351 66.201C48.2576 66.4432 48.4296 66.8683 48.5174 67.1457C48.6066 67.4277 48.6954 67.9577 48.7189 68.3483C48.7437 68.7587 48.7238 69.2781 48.6708 69.6076C48.6209 69.9175 48.5081 70.2811 48.4187 70.4202C48.3296 70.5586 48.1444 70.7513 48.007 70.8483C47.8236 70.9779 47.6508 71.0247 47.3562 71.0247C47.1356 71.0247 46.8824 70.9855 46.7934 70.9377C46.7045 70.8898 46.5357 70.7589 46.4183 70.6468L46.2049 70.4429L46.2458 70.8831C46.2683 71.1253 46.3523 71.4786 46.4324 71.6684C46.5125 71.8582 46.6987 72.1534 46.8461 72.3244C46.9935 72.4954 47.2887 72.7167 47.5022 72.8163C47.7852 72.9482 48.0304 72.998 48.4084 73.0001C48.8303 73.0025 49.0054 72.9624 49.3508 72.7847C49.584 72.6647 49.8753 72.4389 49.998 72.2828C50.1207 72.1268 50.2912 71.8427 50.377 71.6515C50.4787 71.425 50.533 71.1495 50.533 70.8612C50.533 70.6177 50.5117 70.3173 50.4858 70.1934C50.4444 69.9958 50.4721 69.9452 50.7132 69.7789C50.8642 69.6747 51.0523 69.4975 51.1313 69.385C51.2102 69.2726 51.2918 69.0224 51.3125 68.8292C51.3333 68.636 51.3096 68.2916 51.2598 68.0639C51.21 67.8362 51.0361 67.3567 50.8733 66.9983C50.6161 66.4322 50.4494 66.2083 49.6026 65.2915C48.8686 64.4969 48.5618 64.1024 48.3601 63.6934C48.2127 63.3947 48.0679 63.063 48.0382 62.9564C47.9963 62.8059 48.033 62.832 48.2021 63.0727C48.3219 63.2434 48.5495 63.5021 48.7078 63.6475C48.866 63.793 49.1466 64.0126 49.3312 64.1356C49.5159 64.2586 49.8935 64.4316 50.1706 64.5201C50.5756 64.6493 50.817 64.6748 51.4023 64.6502C52.0805 64.6216 52.1732 64.5972 52.7601 64.2924C53.2241 64.0514 53.4908 63.8499 53.7722 63.5272C53.9823 63.2862 54.2476 62.8934 54.3618 62.6542C54.4759 62.415 54.6116 62.0314 54.6632 61.8019C54.7211 61.5447 54.7429 61.1212 54.7199 60.6991C54.6887 60.1252 54.6408 59.9217 54.4256 59.4485C54.2842 59.1377 54.0569 58.7697 53.9205 58.6309C53.7841 58.4919 53.5301 58.306 53.356 58.2177C53.1412 58.1087 52.889 58.0563 52.5705 58.0544C52.2441 58.0524 51.9844 58.1043 51.7165 58.2251C51.5047 58.3206 51.2319 58.5174 51.1103 58.6626C50.9887 58.8077 50.8214 59.0658 50.7385 59.2361C50.6557 59.4064 50.5591 59.7858 50.5239 60.0793C50.4817 60.4313 50.4029 60.6937 50.2922 60.8507C50.1999 60.9815 50.0164 61.1422 49.8844 61.2079C49.7524 61.2735 49.4962 61.3272 49.315 61.3272C49.0948 61.3272 48.9021 61.2684 48.734 61.1501C48.5956 61.0528 48.3917 60.7997 48.2808 60.5877C48.17 60.3757 47.9756 59.9055 47.8488 59.5428C47.7221 59.1801 47.5487 58.5692 47.4634 58.1852C47.3428 57.6414 47.3078 57.2209 47.3051 56.2844C47.3026 55.4452 47.3399 54.8827 47.4283 54.4225C47.4981 54.0598 47.6552 53.4314 47.7776 53.0261C47.9 52.6207 48.0314 52.2385 48.0696 52.1766C48.1273 52.0835 48.2641 52.1323 48.866 52.4608C49.2658 52.679 49.9246 53.0015 50.3302 53.1776C50.7357 53.3536 51.4519 53.6198 51.9218 53.7691C52.3916 53.9185 53.2215 54.1269 53.7658 54.2324C54.3102 54.3378 55.2893 54.4577 55.9417 54.499C56.594 54.5402 57.1447 54.5917 57.1655 54.6135C57.1863 54.6352 57.2363 55.7446 57.2765 57.0785C57.3281 58.7866 57.3246 60.3645 57.2647 62.4133C57.2179 64.0134 57.1453 65.8462 57.1034 66.4863C57.0614 67.1263 56.9611 68.418 56.8804 69.3567C56.7998 70.2955 56.6689 71.5872 56.5895 72.2272C56.5101 72.8673 56.3919 73.8971 56.3268 74.5158C56.2583 75.166 56.1913 76.6722 56.1679 78.0845C56.1424 79.6329 56.159 80.9405 56.2133 81.6532C56.2605 82.2719 56.3186 83.7557 56.3423 84.9504C56.3673 86.2102 56.3492 87.921 56.2991 89.0234C56.2516 90.0688 56.178 91.3547 56.1356 91.8811C56.0931 92.4075 56.0727 92.8533 56.0903 92.8716C56.1078 92.89 56.3853 92.7662 56.7069 92.5966C57.0371 92.4226 57.5077 92.0831 57.7878 91.8168C58.0641 91.5541 58.4315 91.097 58.6173 90.7846C58.8007 90.4763 59.0318 89.9975 59.131 89.7207C59.2301 89.4438 59.3499 88.9555 59.3971 88.6355C59.4444 88.3155 59.4616 87.8267 59.4356 87.5493C59.4095 87.272 59.3426 86.8545 59.2868 86.6217C59.2311 86.3888 59.1938 86.1895 59.204 86.1788C59.2142 86.1682 59.335 86.3586 59.4723 86.6022C59.6097 86.8458 59.9513 87.367 60.2316 87.7604C60.5119 88.1538 60.7766 88.4987 60.8198 88.5267C60.8631 88.5548 61.4278 88.0238 62.0747 87.3468C62.7216 86.6698 63.251 86.095 63.251 86.0696C63.251 86.0441 63.0788 85.7993 62.8684 85.5256C62.658 85.2519 62.3122 84.7487 62.1 84.4073C61.8878 84.066 61.5904 83.5278 61.4391 83.2114C61.2878 82.895 61.0534 82.3324 60.9183 81.9613C60.7831 81.5902 60.5732 80.8715 60.4518 80.3643C60.3304 79.8572 60.1898 79.0465 60.1392 78.563C60.0848 78.043 60.064 77.2666 60.0883 76.6623C60.1108 76.1004 60.1695 75.3702 60.2186 75.0395C60.2677 74.7088 60.3371 74.4383 60.3729 74.4383C60.4087 74.4383 60.4384 74.4993 60.439 74.574C60.4396 74.6487 60.5724 75.1219 60.7342 75.6256C60.8958 76.1293 61.2145 76.9232 61.4423 77.3899C61.6701 77.8566 62.0727 78.5773 62.337 78.9916L62.8175 79.7448L62.5138 80.0091C62.3468 80.1545 62.1611 80.3728 62.1013 80.494C62.0414 80.6154 61.9925 80.8857 61.9925 81.0948C61.9925 81.3619 62.0426 81.5531 62.1608 81.7369C62.2534 81.8809 62.4415 82.0781 62.5789 82.175C62.7369 82.2867 62.9403 82.3518 63.1324 82.3524C63.2994 82.3529 63.7398 82.244 64.1112 82.1104L64.7864 81.8676L65.2587 82.2508C65.5183 82.4617 65.8426 82.7151 65.9791 82.8141L66.2273 82.9941L68.5476 80.5633L70.8678 78.1326L70.3436 77.9584C70.0553 77.8626 69.7899 77.7533 69.754 77.7157C69.7162 77.6761 69.8662 77.3388 70.11 76.9155C70.3418 76.5131 70.6547 75.9045 70.8053 75.5632C70.956 75.2218 71.1801 74.6109 71.3032 74.2055C71.4263 73.8002 71.5807 73.1892 71.6463 72.8479C71.7118 72.5065 71.7975 71.8781 71.8369 71.4514C71.8762 71.0247 71.9092 70.6061 71.9103 70.5211C71.9116 70.4125 72.3836 70.8603 73.4989 72.0281L75.0855 73.6896L77.0182 71.7009C78.0811 70.6071 78.951 69.6867 78.9514 69.6555C78.9517 69.6242 78.8068 69.5601 78.6292 69.5128C78.4517 69.4656 78.1974 69.3455 78.0639 69.2459C77.9304 69.1463 77.7261 68.9272 77.6098 68.759C77.4936 68.5907 77.3592 68.2697 77.3113 68.0455C77.2388 67.7061 77.2442 67.5662 77.3429 67.2104C77.4174 66.9416 77.5723 66.6511 77.7603 66.4272C77.9489 66.2026 78.1885 66.0195 78.4094 65.9309C78.606 65.8521 78.9385 65.7932 79.1669 65.7966C79.4234 65.8004 79.685 65.8622 79.8741 65.9637C80.0391 66.0523 80.2765 66.2344 80.4017 66.3687C80.5269 66.5028 80.6796 66.7413 80.741 66.8985C80.8025 67.0558 80.8816 67.2633 80.9167 67.3596C80.9747 67.5186 81.8529 66.6204 90.4903 57.5679L100 47.6012L99.7067 47.4668C99.5069 47.3752 99.213 47.3313 98.7842 47.329C98.2778 47.3263 98.0889 47.3596 97.8163 47.4997C97.63 47.5954 97.3317 47.8045 97.1535 47.9643C96.9244 48.1699 96.8476 48.2095 96.8912 48.0997C96.9251 48.0144 96.9686 47.7697 96.9879 47.556C97.0072 47.3424 96.9862 47.0248 96.9415 46.8504C96.8966 46.6759 96.7614 46.3905 96.6408 46.2161C96.5202 46.0417 96.2703 45.8061 96.0854 45.6925C95.8653 45.5574 95.5956 45.4714 95.3049 45.4438C95.0606 45.4206 94.862 45.4326 94.8634 45.4706C94.8648 45.5085 94.9143 45.749 94.9733 46.005C95.0323 46.261 95.0811 46.6465 95.0817 46.8615C95.0823 47.0766 95.0326 47.4546 94.9712 47.7016C94.9098 47.9487 94.7686 48.3456 94.6573 48.5836C94.5461 48.8217 94.305 49.1914 94.1217 49.4052C93.9382 49.619 93.6147 49.9102 93.4027 50.0523C93.1906 50.1945 93.0039 50.3107 92.9876 50.3107C92.9713 50.3107 92.9379 50.0053 92.9133 49.6319C92.8887 49.2586 92.7993 48.6913 92.7146 48.3712C92.6299 48.0512 92.396 47.4403 92.1948 47.0136C91.9555 46.5061 91.6488 46.0167 91.308 45.5987L90.787 44.9596L90.4175 45.2378C90.2143 45.3908 89.8813 45.5825 89.6776 45.6636C89.4738 45.7447 89.2798 45.8111 89.2464 45.8111C89.2131 45.8111 89.2293 45.5929 89.2827 45.3262C89.336 45.0596 89.3804 44.6287 89.3812 44.3689C89.3821 44.109 89.3172 43.6279 89.2371 43.2996C89.157 42.9715 89.029 42.5557 88.9527 42.3757C88.8763 42.1957 88.6416 41.8135 88.4311 41.5263C88.0941 41.0667 88.0712 41.0133 88.2392 41.0802C88.3441 41.122 88.6124 41.1563 88.8353 41.1563C89.0888 41.1563 89.3434 41.1008 89.5152 41.0082C89.6663 40.9268 89.8777 40.7609 89.985 40.6397C90.0923 40.5185 90.2393 40.2971 90.3115 40.1477C90.3903 39.9851 90.4429 39.705 90.4428 39.4495C90.4426 39.1704 90.3896 38.9154 90.2896 38.7125C90.2054 38.5418 90.0419 38.308 89.9262 38.1929C89.8105 38.0779 89.592 37.9295 89.4406 37.8632C89.2892 37.7969 88.9967 37.7427 88.7905 37.7427C88.5843 37.7427 88.3084 37.7898 88.1774 37.8473C88.0464 37.9049 87.8292 38.0492 87.6947 38.1679L87.4503 38.3839L87.4993 37.9968C87.5381 37.6902 87.5151 37.531 87.3885 37.2311C87.3006 37.0229 87.1554 36.7701 87.0657 36.6694C86.9762 36.5687 86.7727 36.4164 86.6136 36.331C86.4244 36.2293 86.179 36.1756 85.9034 36.1756C85.6223 36.1756 85.3815 36.2295 85.179 36.3378C85.0121 36.427 84.7946 36.6138 84.6955 36.7529C84.5965 36.8919 84.4734 37.091 84.4219 37.1953C84.3704 37.2996 84.331 37.585 84.3343 37.8297C84.338 38.108 84.3946 38.3855 84.4854 38.571C84.5652 38.7342 84.7088 38.942 84.8043 39.0327C84.8999 39.1236 85.078 39.2531 85.2002 39.3205L85.4222 39.4433L85.2332 39.4464C85.1292 39.4481 84.8738 39.5385 84.6655 39.6472C84.4573 39.756 84.1996 39.9649 84.0929 40.1115C83.9862 40.258 83.8478 40.5269 83.7853 40.7089C83.7146 40.9148 83.6872 41.1647 83.7127 41.3698C83.7354 41.5513 83.8181 41.8306 83.8965 41.9905C83.975 42.1504 84.1339 42.3754 84.2495 42.4904C84.3652 42.6055 84.5837 42.7539 84.7351 42.8201C84.8865 42.8864 85.1697 42.9398 85.3644 42.9389C85.559 42.938 85.8649 42.8675 86.044 42.7823C86.2231 42.6972 86.4859 42.4983 86.6281 42.3403L86.8866 42.0531L87.1301 42.3484C87.2641 42.5107 87.4498 42.8065 87.5428 43.0055C87.6777 43.2941 87.7125 43.5008 87.7146 44.0267C87.7167 44.5854 87.6864 44.7549 87.5161 45.1357L87.3151 45.5852L87.0763 45.4557C86.9449 45.3845 86.6023 45.2397 86.3149 45.134C85.9044 44.983 85.5914 44.9329 84.8551 44.9009C84.1146 44.8686 83.8038 44.8886 83.3746 44.9959C83.0758 45.0707 82.5648 45.262 82.2391 45.4209C81.9133 45.5799 81.4636 45.8544 81.2397 46.0311C81.0157 46.2077 80.6421 46.5848 80.4094 46.869C80.1766 47.1533 79.8551 47.6512 79.6948 47.9755C79.5345 48.2999 79.3492 48.7572 79.283 48.9919C79.2166 49.2266 79.1293 49.6614 79.0887 49.9582C79.0452 50.2774 78.9386 50.6346 78.8278 50.8327C78.7248 51.0169 78.5163 51.2537 78.3646 51.359C78.2128 51.4643 77.9395 51.5718 77.7571 51.598C77.5743 51.6243 77.2773 51.6037 77.0946 51.5522C76.8766 51.4907 76.6538 51.3437 76.4421 51.1219L76.1207 50.7851L76.0152 51.0497C75.9571 51.1952 75.9097 51.5435 75.9097 51.8236C75.9097 52.2105 75.9534 52.4233 76.0913 52.7085C76.1911 52.915 76.4297 53.2287 76.6215 53.4057C76.8429 53.6099 77.1181 53.7724 77.3754 53.8507C77.6502 53.9345 77.9 53.9576 78.1514 53.9227C78.3553 53.8943 78.6589 53.7993 78.826 53.7116C78.9932 53.6238 79.2215 53.4621 79.3335 53.3521L79.537 53.1522L79.5387 53.6516C79.5397 53.9801 79.5903 54.2666 79.6865 54.4886C79.7669 54.6743 79.9303 54.9554 80.0495 55.1132C80.1689 55.2711 80.4402 55.4993 80.6526 55.6204C80.9715 55.8024 81.1658 55.8499 81.7705 55.8938C82.3286 55.9344 82.55 55.9837 82.7038 56.1019C82.8146 56.187 82.9636 56.3764 83.0347 56.5227C83.1059 56.669 83.1643 56.9214 83.1643 57.0835C83.1643 57.2456 83.1151 57.4781 83.0549 57.6002C82.9947 57.7222 82.8198 57.9333 82.6663 58.0693C82.4799 58.2343 82.4363 58.3033 82.5352 58.2769C82.6166 58.2552 82.8165 58.2143 82.9793 58.1859C83.1422 58.1576 83.4278 58.0326 83.614 57.9083C83.8003 57.7839 84.0526 57.5336 84.1746 57.3518C84.2966 57.1701 84.4438 56.8993 84.5016 56.7499C84.5594 56.6006 84.6047 56.2684 84.6022 56.0116C84.5989 55.6771 84.5411 55.4155 84.3981 55.0882C84.2884 54.8371 84.2074 54.6263 84.2183 54.6199C84.229 54.6134 84.3849 54.541 84.5647 54.459C84.7445 54.3769 85.0542 54.1438 85.2529 53.941C85.4547 53.735 85.7009 53.3746 85.8107 53.1246C85.9628 52.778 86.0077 52.5543 86.0093 52.1339C86.0105 51.8106 85.9583 51.4298 85.8803 51.1928C85.8083 50.9739 85.6355 50.6597 85.4963 50.4946L85.2433 50.1944L85.2387 50.5823C85.2361 50.7956 85.1731 51.1106 85.0987 51.2822C85.0243 51.4538 84.8508 51.7122 84.7133 51.8564C84.5757 52.0005 84.3291 52.1823 84.1654 52.2603C83.9841 52.3465 83.6924 52.4027 83.4195 52.4037C83.0853 52.405 82.8752 52.3551 82.5928 52.2077C82.3845 52.0989 82.1264 51.8894 82.0192 51.7422C81.912 51.5949 81.7722 51.3436 81.7084 51.1837C81.6267 50.9788 81.6029 50.741 81.6277 50.3775C81.6482 50.0775 81.7294 49.7181 81.8218 49.518C81.9092 49.3289 82.102 49.0255 82.2502 48.8441C82.3985 48.6625 82.6431 48.4324 82.7937 48.3328C82.9444 48.2331 83.2454 48.0963 83.4626 48.0286C83.6798 47.9611 83.9931 47.9064 84.1587 47.9071C84.3243 47.9078 84.6818 47.9577 84.9531 48.018C85.2244 48.0783 85.6408 48.2233 85.8785 48.3402C86.1584 48.478 86.4938 48.7463 86.8308 49.102C87.162 49.4518 87.4379 49.8346 87.5901 50.1556C87.7216 50.4329 87.9165 51.009 88.0232 51.4357C88.188 52.0948 88.2172 52.3749 88.2172 53.2976C88.2172 54.2209 88.1881 54.4992 88.0236 55.154C87.9171 55.5776 87.6826 56.2409 87.5026 56.628C87.3225 57.0151 87.0105 57.5587 86.8093 57.836C86.6081 58.1134 86.2011 58.5796 85.9049 58.872C85.6086 59.1644 85.1309 59.5632 84.843 59.7583C84.5552 59.9534 84.0515 60.2318 83.7236 60.3769C83.3957 60.522 82.8442 60.7154 82.4981 60.8069C81.9876 60.9418 81.6595 60.9723 80.7585 60.9684C79.8671 60.9646 79.5346 60.9312 79.0726 60.799C78.7561 60.7085 78.2027 60.4749 77.8428 60.2801C77.4828 60.0853 76.9831 59.7313 76.7321 59.4932C76.4812 59.2553 76.1309 58.8461 75.9536 58.5841C75.7763 58.322 75.5444 57.9263 75.4383 57.7047C75.3321 57.4832 75.1639 57.0077 75.0645 56.6482C74.9651 56.2887 74.7666 55.3877 74.6235 54.646C74.4802 53.9044 74.2953 52.8088 74.2125 52.2115C74.1295 51.6141 74.0104 50.5842 73.9478 49.9228C73.8851 49.2615 73.8132 47.8127 73.7881 46.7033C73.76 45.4603 73.7758 44.1353 73.8292 43.2509C73.877 42.4615 73.9671 41.3444 74.0295 40.7684C74.092 40.1923 74.2392 39.1275 74.3567 38.4022C74.4742 37.6768 74.6888 36.5422 74.8337 35.8808C74.9786 35.2194 75.234 34.1721 75.4013 33.5534C75.5686 32.9347 75.7654 32.3063 75.8386 32.1569C75.9118 32.0076 76.1327 31.7212 76.3293 31.5205C76.526 31.3198 76.8535 31.0769 77.0571 30.9807C77.3415 30.8463 77.5644 30.8057 78.0195 30.8054C78.5145 30.8051 78.6882 30.8416 79.0781 31.0278C79.3843 31.1741 79.6563 31.381 79.8699 31.63C80.0489 31.8386 80.2638 32.2009 80.3474 32.4351C80.431 32.6693 80.4994 33.0202 80.4994 33.2148C80.4994 33.4095 80.4448 33.6895 80.3779 33.8369C80.3111 33.9845 80.1415 34.1971 80.0009 34.3095C79.7998 34.4702 79.6664 34.5125 79.3747 34.5079C79.1201 34.5039 78.9377 34.4507 78.7923 34.338C78.6759 34.2478 78.5585 34.174 78.5315 34.174C78.5044 34.174 78.4972 34.3573 78.5153 34.5813C78.5334 34.8053 78.6064 35.1158 78.6773 35.2714C78.7482 35.4269 78.9193 35.6925 79.0574 35.8616C79.2028 36.0397 79.4719 36.2428 79.6969 36.3442C80.0224 36.491 80.1815 36.5139 80.6809 36.4865C81.179 36.4591 81.3527 36.4112 81.7407 36.1944C81.9959 36.0519 82.3246 35.7962 82.471 35.6264C82.6174 35.4565 82.8222 35.123 82.9261 34.8852C83.03 34.6474 83.1303 34.2853 83.1491 34.0807C83.1679 33.876 83.189 33.7085 83.1961 33.7085C83.2031 33.7085 83.5071 33.7787 83.8714 33.8646C84.2414 33.9518 84.9785 34.0424 85.5407 34.07C86.1563 34.1002 86.5645 34.0904 86.5913 34.0449C86.6154 34.0041 84.4594 31.6907 81.8003 28.9042L76.9655 23.8378L76.9153 24.188C76.8878 24.3807 76.7665 24.6945 76.6457 24.8855C76.525 25.0765 76.2978 25.3219 76.1409 25.4307C75.9839 25.5395 75.7119 25.6691 75.5362 25.7187C75.3523 25.7706 75.0742 25.7863 74.8803 25.7558C74.6951 25.7268 74.4262 25.6397 74.2828 25.5623C74.1394 25.4849 73.934 25.3224 73.8265 25.2012C73.7191 25.08 73.5557 24.8236 73.4635 24.6316C73.3456 24.3859 73.2969 24.1511 73.2995 23.839C73.3019 23.5487 73.3588 23.2751 73.464 23.0472C73.5525 22.8557 73.7451 22.5883 73.8921 22.4531C74.039 22.3179 74.2689 22.1592 74.4029 22.1006C74.5368 22.0419 74.7475 21.9939 74.8709 21.9939C74.9944 21.9939 75.0954 21.9675 75.0954 21.9352C75.0954 21.903 74.1134 20.8479 72.9132 19.5906C71.5621 18.1753 70.7058 17.3334 70.6649 17.38C70.6285 17.4215 70.2719 17.9267 69.8722 18.5028C69.4725 19.0788 69.1371 19.5625 69.1268 19.5778C69.1165 19.593 68.8645 19.3536 68.5669 19.0458C68.2693 18.7381 67.7494 18.2684 67.4116 18.0021C67.0739 17.7358 66.4993 17.3532 66.1347 17.1518C65.5171 16.8105 65.4776 16.7743 65.5559 16.621C65.6021 16.5305 65.7925 16.2856 65.9789 16.0767C66.1654 15.8678 66.4611 15.6089 66.6359 15.5016C66.8107 15.3942 67.1117 15.2563 67.3047 15.1952C67.4977 15.1341 67.8691 15.0821 68.13 15.0798L68.6046 15.0756L66.6334 13.0098L64.6622 10.944L63.9732 11.6522C63.4364 12.2039 63.2231 12.3724 63.0084 12.4146C62.8568 12.4444 62.6171 12.4461 62.4758 12.4183C62.3346 12.3904 62.1168 12.2777 61.992 12.1676C61.8672 12.0575 61.7163 11.8687 61.6567 11.7479C61.5971 11.6271 61.5483 11.3845 61.5483 11.209C61.5483 11.0333 61.5853 10.8135 61.6305 10.7202C61.6757 10.627 62.0002 10.245 62.3514 9.87118L62.9902 9.19157L58.6049 4.59579L54.2196 0V2.84301V5.68595L54.7903 6.05872C55.1041 6.26369 55.6082 6.6775 55.9104 6.97828C56.2126 7.27906 56.6076 7.72616 56.788 7.97177C56.9684 8.21739 57.2646 8.71088 57.4461 9.06837C57.6275 9.42594 57.8617 9.97552 57.9666 10.2898C58.0714 10.604 58.2039 11.1173 58.2611 11.4304C58.3183 11.7435 58.3651 12.206 58.3651 12.4583C58.3651 12.8563 58.3466 12.917 58.2252 12.917C58.1483 12.917 57.8129 12.8628 57.48 12.7967C57.1471 12.7305 56.5811 12.5757 56.222 12.4527C55.863 12.3299 55.224 12.0476 54.8019 11.8257C54.3798 11.6038 53.8402 11.284 53.6026 11.1149C53.3651 10.946 52.8275 10.4612 52.408 10.0377C51.9884 9.61423 51.48 9.01523 51.2781 8.70677C51.0761 8.39823 50.7933 7.91887 50.6494 7.64152C50.5056 7.36417 50.3091 6.91909 50.2128 6.65237C50.1166 6.38572 50.0162 6.16749 49.9899 6.16749C49.9636 6.16749 49.9192 6.26291 49.8912 6.37959C49.8633 6.4962 49.7257 6.85182 49.5855 7.1699C49.4453 7.48791 49.1183 8.08194 48.8586 8.49001C48.595 8.90453 48.0975 9.53153 47.7313 9.9109C47.3708 10.2843 46.876 10.7474 46.6317 10.9399C46.3874 11.1325 45.7978 11.4995 45.3214 11.7555C44.8451 12.0114 44.156 12.3233 43.7903 12.4486C43.4245 12.5738 42.8528 12.7305 42.5199 12.7967C42.187 12.8628 41.8517 12.917 41.7748 12.917C41.6534 12.917 41.6349 12.8563 41.6349 12.4583C41.6349 12.206 41.6817 11.7435 41.7389 11.4304C41.7961 11.1173 41.9286 10.604 42.0334 10.2898C42.1383 9.97552 42.3725 9.42594 42.5539 9.06837C42.7354 8.71088 43.0315 8.21739 43.212 7.97177C43.3924 7.72616 43.7874 7.27906 44.0896 6.97828C44.3918 6.6775 44.8959 6.26369 45.2097 6.05872L45.7804 5.68595V2.86225C45.7804 1.30925 45.772 0.0386351 45.7617 0.0386351C45.7514 0.0386351 43.778 2.09808 41.3764 4.61518ZM51.8137 15.7914C52.3023 15.8354 53.0518 15.9242 53.4793 15.9888C53.9068 16.0532 54.6896 16.2084 55.2189 16.3335C55.7482 16.4585 56.7049 16.74 57.3449 16.959C57.9848 17.1779 58.5577 17.3967 58.6179 17.445C58.6868 17.5004 58.7723 17.8499 58.8482 18.3864C58.9215 18.9053 58.9691 19.7416 58.9696 20.5199C58.9701 21.3059 58.9247 22.1143 58.852 22.6145C58.7869 23.0625 58.6353 23.8151 58.5152 24.2869C58.395 24.7586 58.1439 25.5441 57.9572 26.0324C57.7704 26.5207 57.4386 27.2524 57.2198 27.6583C57.001 28.0642 56.6134 28.7036 56.3585 29.0793C56.1034 29.455 55.6134 30.0756 55.2696 30.4585L54.6443 31.1546L55.053 31.9855C55.2777 32.4424 55.5825 33.1363 55.7301 33.5272C55.8778 33.9182 56.0969 34.6339 56.2171 35.1176C56.3373 35.6014 56.4887 36.3288 56.5537 36.7342C56.625 37.1793 56.6977 38.3468 56.7374 39.6822C56.7736 40.8983 56.8048 42.1736 56.8068 42.5163L56.8105 43.1393L55.9037 43.4349C55.405 43.5976 54.6095 43.914 54.1361 44.1383C53.6627 44.3626 52.9298 44.7622 52.5075 45.0264C52.0851 45.2907 51.4398 45.7407 51.0734 46.0266C50.707 46.3125 49.9988 46.9622 49.4998 47.4704C48.5978 48.3887 48.5915 48.3933 48.4384 48.2482C48.3536 48.1678 48.1039 47.8508 47.8834 47.5438C47.6629 47.2367 47.3522 46.7299 47.1932 46.4177C47.0341 46.1053 46.8204 45.5692 46.7184 45.2261C46.6164 44.8831 46.4917 44.246 46.4413 43.8103C46.3689 43.1835 46.3686 42.8522 46.4404 42.223C46.4902 41.7856 46.6306 41.1136 46.7523 40.7296C46.874 40.3455 47.0533 39.8884 47.1506 39.7137C47.248 39.5391 47.4459 39.3017 47.5905 39.1861C47.735 39.0706 47.9688 38.9255 48.1099 38.8637C48.2511 38.8018 48.5208 38.7513 48.7092 38.7513C48.8983 38.7513 49.147 38.8101 49.2642 38.8827C49.381 38.955 49.5492 39.1579 49.6381 39.3334C49.7613 39.5766 49.7876 39.7202 49.7488 39.9367C49.7209 40.0929 49.615 40.3241 49.5134 40.4506C49.4119 40.577 49.2112 40.7211 49.0674 40.7708C48.9236 40.8206 48.6949 40.8395 48.5591 40.8128C48.4234 40.7861 48.2257 40.6929 48.1198 40.6055C47.9764 40.4873 47.9272 40.4747 47.9272 40.5562C47.9272 40.6163 48.0573 40.8559 48.2162 41.0885C48.408 41.3691 48.6383 41.5886 48.901 41.7411C49.2423 41.9392 49.3731 41.9705 49.8519 41.9689C50.3081 41.9673 50.4749 41.9298 50.7871 41.7589C50.996 41.6445 51.2713 41.4127 51.3988 41.244C51.5264 41.0753 51.6802 40.813 51.7407 40.6613C51.8021 40.5072 51.8499 40.1531 51.8491 39.8593C51.848 39.5132 51.7998 39.2233 51.7084 39.0122C51.6319 38.8357 51.4494 38.5521 51.3028 38.3821C51.1563 38.2121 51.0364 38.0012 51.0364 37.9134C51.0364 37.8257 51.0887 37.699 51.1527 37.6319C51.2167 37.5648 51.3309 37.51 51.4065 37.51C51.4822 37.51 51.6713 37.637 51.8269 37.7923C51.9825 37.9475 52.243 38.1388 52.4059 38.2173C52.589 38.3055 52.8716 38.3599 53.1462 38.3599C53.4201 38.3599 53.7038 38.3054 53.8864 38.2176C54.0493 38.1393 54.2789 37.9742 54.3968 37.8508C54.5146 37.7274 54.6891 37.4518 54.7847 37.2384C54.8802 37.0251 54.9587 36.7045 54.9591 36.5259C54.9596 36.3473 54.9259 36.1076 54.8843 35.993L54.8088 35.7849L54.642 36.0443C54.5503 36.1871 54.3627 36.3832 54.2253 36.4802C54.0592 36.5976 53.8662 36.6566 53.6485 36.6566C53.4687 36.6566 53.2488 36.6176 53.1598 36.5701C53.0709 36.5225 52.8316 36.3147 52.628 36.1082C52.4244 35.9017 52.0982 35.659 51.9031 35.5689C51.6296 35.4426 51.4019 35.4057 50.9089 35.4076L50.2695 35.4101L50.6123 35.0442C50.8008 34.8429 51.0483 34.4688 51.1622 34.2128C51.3451 33.8022 51.369 33.6604 51.3651 33.0103C51.3614 32.3909 51.3306 32.2046 51.1721 31.8424C51.0683 31.6055 50.88 31.2883 50.7537 31.1375C50.6275 30.9869 50.3892 30.7655 50.2244 30.6457C49.9872 30.4735 49.8419 30.428 49.5289 30.428C49.2861 30.428 49.0492 30.48 48.9155 30.5628C48.7957 30.637 48.6214 30.8144 48.5281 30.9571C48.4348 31.0997 48.3419 31.3495 48.3216 31.5122C48.3014 31.6748 48.3205 31.9049 48.3641 32.0236C48.4417 32.2345 48.4486 32.2368 48.6629 32.1206C48.7835 32.0552 48.9705 32.0018 49.0784 32.0018C49.2027 32.0018 49.3666 32.0983 49.5262 32.2655C49.744 32.4938 49.7779 32.5805 49.7779 32.9098C49.7779 33.1635 49.7141 33.4244 49.5864 33.6929C49.4326 34.0162 49.2585 34.2031 48.7038 34.64C48.3238 34.9394 47.8066 35.4196 47.5544 35.7072C47.3024 35.9947 46.9492 36.4448 46.7698 36.7075C46.5904 36.9702 46.2982 37.4938 46.1205 37.8712C45.9428 38.2485 45.7116 38.8278 45.6067 39.1584C45.5018 39.489 45.3647 40.0427 45.3021 40.3888C45.2371 40.7483 45.1882 41.4411 45.1882 42.004C45.1882 42.5461 45.2234 43.1968 45.2664 43.45C45.3093 43.7032 45.3629 43.9758 45.3853 44.0558C45.4093 44.1415 45.3958 44.1817 45.3526 44.1537C45.3121 44.1275 45.1088 43.6723 44.9008 43.1421C44.6928 42.6119 44.4259 41.7823 44.3078 41.2987C44.1896 40.815 44.0517 40.0983 44.0014 39.706C43.9412 39.2373 43.924 38.5057 43.9512 37.5725C43.9808 36.5573 44.0375 35.9311 44.1503 35.3765C44.237 34.9498 44.4366 34.1957 44.5938 33.7009C44.7509 33.2059 45.0458 32.4538 45.2489 32.0296C45.452 31.6053 45.8227 30.938 46.0725 30.5466L46.5266 29.835L45.7018 28.9999C45.2481 28.5405 44.6522 27.8497 44.3774 27.4649C44.1028 27.08 43.7038 26.46 43.4909 26.0872C43.2779 25.7143 42.9352 24.9814 42.7291 24.4582C42.5231 23.9352 42.2457 23.0533 42.1126 22.4984C41.9795 21.9435 41.8295 21.0708 41.7794 20.5588C41.7224 19.977 41.7067 19.2424 41.7375 18.5997C41.7646 18.0342 41.8175 17.4866 41.8552 17.3828C41.9114 17.2277 42.0653 17.1462 42.7231 16.9235C43.1628 16.7747 43.8557 16.5647 44.2629 16.457C44.67 16.3491 45.3696 16.1927 45.8174 16.1091C46.2653 16.0256 46.9982 15.9186 47.446 15.8712C47.8939 15.8238 48.4103 15.7742 48.5935 15.761C48.7767 15.7478 49.3763 15.7312 49.926 15.7242C50.4756 15.7172 51.3251 15.7475 51.8137 15.7914ZM64.4576 20.2589C64.5879 20.3286 64.9347 20.559 65.2283 20.7707C65.5219 20.9824 66.0066 21.4239 66.3055 21.7518C66.6043 22.0796 66.9585 22.5148 67.0925 22.7189C67.2265 22.9229 67.4995 23.4485 67.6993 23.8869C67.8991 24.3253 68.1326 24.9601 68.2181 25.2978C68.3186 25.6942 68.3877 26.2628 68.4132 26.9026C68.4378 27.522 68.4183 28.1168 68.361 28.4889C68.3106 28.8164 68.1858 29.3481 68.0836 29.6702C67.9815 29.9925 67.7463 30.566 67.5609 30.9447L67.2239 31.6331L67.6044 32.8454C67.8136 33.5121 68.1028 34.494 68.247 35.0274C68.3912 35.5608 68.6268 36.5485 68.7706 37.2224C68.9144 37.8963 69.1281 39.0483 69.2456 39.7825C69.3631 40.5168 69.5198 41.6935 69.5938 42.3975C69.7026 43.4325 69.7284 44.309 69.7284 46.9748C69.7284 49.6405 69.7026 50.5171 69.5938 51.552C69.5198 52.2561 69.3643 53.4256 69.2482 54.151C69.1321 54.8764 68.9486 55.8364 68.8406 56.2844C68.7324 56.7325 68.5088 57.5354 68.3438 58.0688C68.1786 58.6022 67.8949 59.4033 67.7134 59.8492C67.5318 60.295 67.2557 60.9259 67.0996 61.2511L66.8161 61.8422L66.9578 62.174C67.0358 62.3566 67.2162 62.8324 67.3589 63.2315C67.5015 63.6305 67.7036 64.3111 67.808 64.7441C67.9125 65.177 68.0451 65.9032 68.1029 66.3579C68.1607 66.8125 68.2083 67.6209 68.2087 68.1542C68.2092 68.6876 68.1753 69.4382 68.1334 69.8222C68.0915 70.2062 67.9946 70.8346 67.9179 71.2187C67.8413 71.6027 67.6733 72.266 67.5446 72.6927C67.4158 73.1194 67.1077 73.9136 66.86 74.4577C66.6123 75.0017 66.3866 75.4468 66.3586 75.4468C66.3306 75.4468 66.1059 75.2089 65.8594 74.9182C65.6129 74.6276 65.2333 74.1298 65.0158 73.8121C64.7983 73.4944 64.4983 72.9904 64.349 72.6921C64.1997 72.3937 63.9787 71.8878 63.8579 71.5678C63.7372 71.2478 63.5695 70.7241 63.4854 70.4041C63.4013 70.0841 63.2481 69.2462 63.145 68.5421C63.0418 67.8381 62.8567 66.4417 62.7335 65.4389C62.6103 64.4362 62.4279 62.7779 62.3281 61.7539C62.2283 60.7298 62.0961 59.2112 62.0343 58.3791C61.9725 57.5471 61.8838 56.174 61.8372 55.328C61.7893 54.4566 61.7805 53.764 61.817 53.7306C61.8524 53.6983 62.1646 53.5576 62.5107 53.4181C62.8568 53.2785 63.4816 52.977 63.8993 52.748C64.317 52.5191 64.9092 52.1545 65.2153 51.9381C65.5215 51.7215 66.0975 51.2699 66.4955 50.9345C66.8935 50.599 67.5052 50.0094 67.8549 49.6244C68.2526 49.1864 68.5768 48.7435 68.7209 48.4414C68.9143 48.0356 68.9511 47.8696 68.9511 47.4015C68.9511 46.9353 68.9141 46.7669 68.7246 46.3693C68.5497 46.0026 68.3683 45.7817 67.9288 45.4002C67.6157 45.1285 67.148 44.757 66.8894 44.5747C66.6309 44.3924 66.0146 44.039 65.5199 43.7894C65.0252 43.5398 64.2555 43.229 63.8093 43.0986C63.3632 42.9682 62.7054 42.8207 62.3473 42.7708L61.6964 42.6799L61.6968 42.209C61.6971 41.95 61.7312 41.0573 61.7726 40.2253C61.814 39.3932 61.8979 37.9793 61.9589 37.0833C62.02 36.1872 62.1366 34.7384 62.218 33.8637C62.2995 32.989 62.4337 31.6624 62.5161 30.9156C62.5986 30.1689 62.7662 28.8074 62.8887 27.89C63.0111 26.9726 63.2079 25.5936 63.3261 24.8256C63.4443 24.0575 63.6598 22.7484 63.805 21.9163C63.9501 21.0843 64.087 20.3424 64.1091 20.2677C64.1312 20.1931 64.1653 20.132 64.185 20.132C64.2046 20.132 64.3272 20.1891 64.4576 20.2589ZM56.8847 46.2184C56.8848 46.6984 56.9068 48.0599 56.9336 49.244L56.9824 51.3969H56.5974C56.3857 51.3969 55.889 51.3592 55.4937 51.3132C55.0983 51.2672 54.4618 51.1622 54.0793 51.0799C53.6968 50.9976 53.0305 50.8074 52.5987 50.6573C52.1669 50.5071 51.4139 50.1785 50.9253 49.927C50.4368 49.6756 49.9704 49.4158 49.889 49.3497C49.7459 49.2335 49.7649 49.205 50.4472 48.5094C50.8357 48.1134 51.452 47.5771 51.8167 47.3176C52.1814 47.0581 52.6655 46.7362 52.8924 46.6022C53.1193 46.4682 53.6523 46.2141 54.0768 46.0375C54.5014 45.861 55.1819 45.6354 55.5891 45.5364C55.9962 45.4375 56.4543 45.354 56.607 45.351L56.8846 45.3456L56.8847 46.2184ZM62.6416 46.3548C62.8701 46.5358 63.0651 46.7856 63.2108 47.084C63.3738 47.4182 63.4394 47.6734 63.4593 48.0516C63.4797 48.439 63.4476 48.6733 63.3284 49.0054C63.2379 49.2576 63.0429 49.5834 62.8717 49.7682C62.7074 49.9457 62.4007 50.1749 62.1902 50.2776C61.9797 50.3803 61.7658 50.4647 61.7149 50.4651C61.6429 50.4658 61.6223 49.9498 61.6223 48.1422V45.8185L61.9581 45.9489C62.1428 46.0206 62.4503 46.2032 62.6416 46.3548Z" fill="#F3C834"/>
</svg>
