<svg width="48" height="48" viewBox="0 0 48 48" fill="none" xmlns="http://www.w3.org/2000/svg">
<circle cx="24" cy="24" r="23.5" fill="#E1E6E9" stroke="#C8D1D7"/>
<path d="M14.2929 23.2929C13.9024 23.6834 13.9024 24.3166 14.2929 24.7071L20.6569 31.0711C21.0474 31.4616 21.6805 31.4616 22.0711 31.0711C22.4616 30.6805 22.4616 30.0474 22.0711 29.6569L16.4142 24L22.0711 18.3431C22.4616 17.9526 22.4616 17.3195 22.0711 16.9289C21.6805 16.5384 21.0474 16.5384 20.6569 16.9289L14.2929 23.2929ZM32.6 25C33.1523 25 33.6 24.5523 33.6 24C33.6 23.4477 33.1523 23 32.6 23V25ZM15 25H32.6V23H15V25Z" fill="#205E81"/>
</svg>
