<svg width="32" height="32" viewBox="0 0 32 32" fill="none" xmlns="http://www.w3.org/2000/svg">
<circle cx="16" cy="16" r="16" fill="#E1E6E9"/>
<path d="M16.0002 17.0706C16.3074 17.0706 16.6117 17.0101 16.8956 16.8925C17.1795 16.7749 17.4375 16.6025 17.6548 16.3853C17.8721 16.168 18.0444 15.91 18.162 15.6261C18.2796 15.3422 18.3402 15.0379 18.3402 14.7306C18.3402 14.4233 18.2796 14.119 18.162 13.8351C18.0444 13.5512 17.8721 13.2933 17.6548 13.076C17.4375 12.8587 17.1795 12.6863 16.8956 12.5687C16.6117 12.4512 16.3074 12.3906 16.0002 12.3906C15.3795 12.3906 14.7844 12.6372 14.3455 13.076C13.9067 13.5148 13.6602 14.11 13.6602 14.7306C13.6602 15.3512 13.9067 15.9464 14.3455 16.3853C14.7844 16.8241 15.3795 17.0706 16.0002 17.0706Z" stroke="#292D32" stroke-width="1.5"/>
<path d="M9.71478 13.3675C11.1923 6.8725 20.8148 6.88 22.2848 13.375C23.1473 17.185 20.7773 20.41 18.6998 22.405C17.9738 23.1052 17.0046 23.4964 15.996 23.4964C14.9875 23.4964 14.0182 23.1052 13.2923 22.405C11.2223 20.41 8.85228 17.1775 9.71478 13.3675Z" stroke="#292D32" stroke-width="1.5"/>
</svg>
