<svg width="32" height="32" viewBox="0 0 32 32" fill="none" xmlns="http://www.w3.org/2000/svg">
<circle cx="16" cy="16" r="16" fill="#E1E6E9"/>
<path d="M13 8.5V10.75M19 8.5V10.75M9.625 13.8175H22.375M22.75 13.375V19.75C22.75 22 21.625 23.5 19 23.5H13C10.375 23.5 9.25 22 9.25 19.75V13.375C9.25 11.125 10.375 9.625 13 9.625H19C21.625 9.625 22.75 11.125 22.75 13.375Z" stroke="#292D32" stroke-width="1.5" stroke-miterlimit="10" stroke-linecap="round" stroke-linejoin="round"/>
<path d="M18.7715 17.2734H18.7782M18.7715 19.5234H18.7782M15.9965 17.2734H16.004M15.9965 19.5234H16.004M13.2207 17.2734H13.2282M13.2207 19.5234H13.2282" stroke="#292D32" stroke-width="2" stroke-linecap="round" stroke-linejoin="round"/>
</svg>
