<svg width="32" height="32" viewBox="0 0 32 32" fill="none" xmlns="http://www.w3.org/2000/svg">
<circle cx="16" cy="16" r="16" fill="#E1E6E9"/>
<path d="M22.4426 23.5C22.4426 20.5975 19.5551 18.25 16.0001 18.25C12.4451 18.25 9.55762 20.5975 9.55762 23.5M16.0001 16C16.9947 16 17.9485 15.6049 18.6518 14.9017C19.355 14.1984 19.7501 13.2446 19.7501 12.25C19.7501 11.2554 19.355 10.3016 18.6518 9.59835C17.9485 8.89509 16.9947 8.5 16.0001 8.5C15.0056 8.5 14.0517 8.89509 13.3485 9.59835C12.6452 10.3016 12.2501 11.2554 12.2501 12.25C12.2501 13.2446 12.6452 14.1984 13.3485 14.9017C14.0517 15.6049 15.0056 16 16.0001 16Z" stroke="#292D32" stroke-width="1.5" stroke-linecap="round" stroke-linejoin="round"/>
</svg>
