<svg width="16" height="10" viewBox="0 0 16 10" fill="none" xmlns="http://www.w3.org/2000/svg">
<path d="M1.36297 4.25899V1.19424H2.48951C3.76903 1.19424 4.38097 1.61151 4.38097 2.71942C4.38097 3.7554 3.75512 4.25899 2.48951 4.25899H1.36297ZM0 9.82734H1.36297V5.43885H1.7663C2.8372 5.43885 3.29616 6.08633 4.03328 7.2518L5.66049 9.82734H7.30162L4.99292 6.23022C4.68694 5.7554 4.4227 5.36691 4.00546 5.13669C5.24326 4.73381 5.78566 3.97122 5.78566 2.69065C5.78566 0.992806 4.72867 0 2.78157 0H0V9.82734Z" fill="white"/>
<path d="M7.82219 0V5.69784C7.82219 6.77698 7.85 7.6259 8.48976 8.44604C9.28251 9.45324 10.4508 10 11.9111 10C14.3589 10 16 8.48921 16 6.31655V0H14.6509V6.27338C14.6509 7.69784 13.5661 8.67626 11.9111 8.67626C10.9236 8.67626 10.1587 8.33093 9.60239 7.65468C9.18515 7.15108 9.17125 6.51799 9.17125 5.64029V0H7.82219Z" fill="white"/>
</svg>
