<svg width="21" height="21" viewBox="0 0 21 21" fill="none" xmlns="http://www.w3.org/2000/svg">
<path d="M2.79777 11.2892C2.68542 11.1113 2.62924 11.0223 2.59779 10.8851C2.57417 10.782 2.57417 10.6195 2.59779 10.5165C2.62924 10.3793 2.68542 10.2903 2.79777 10.1124C3.72623 8.64227 6.48988 4.92578 10.7015 4.92578C14.9131 4.92578 17.6768 8.64227 18.6052 10.1124C18.7176 10.2903 18.7738 10.3793 18.8052 10.5165C18.8288 10.6195 18.8288 10.782 18.8052 10.8851C18.7738 11.0223 18.7176 11.1113 18.6052 11.2892C17.6768 12.7593 14.9131 16.4758 10.7015 16.4758C6.48988 16.4758 3.72623 12.7593 2.79777 11.2892Z" stroke="#3D3D3D" stroke-width="2" stroke-linecap="round" stroke-linejoin="round"/>
<path d="M10.7015 13.1758C12.0684 13.1758 13.1765 12.0677 13.1765 10.7008C13.1765 9.33388 12.0684 8.22578 10.7015 8.22578C9.3346 8.22578 8.2265 9.33388 8.2265 10.7008C8.2265 12.0677 9.3346 13.1758 10.7015 13.1758Z" stroke="#3D3D3D" stroke-width="2" stroke-linecap="round" stroke-linejoin="round"/>
</svg>
